<svg xmlns="http://www.w3.org/2000/svg" xmlns:xlink="http://www.w3.org/1999/xlink" contentStyleType="text/css" data-diagram-type="ACTIVITY" height="1759.8px" preserveAspectRatio="none" style="width:382px;height:1759px;background:#FFFFFF;" version="1.1" viewBox="0 0 382 1759" width="382.2px" zoomAndPan="magnify"><title>Activity Diagram - Pharmacy Management System</title><defs/><g><g class="title" data-source-line="2"><text fill="#000000" font-family="sans-serif" font-size="9.8" font-weight="bold" lengthAdjust="spacing" textLength="233.1089" x="73.5487" y="24.5752">Activity Diagram - Pharmacy Management System</text></g><ellipse cx="208.9114" cy="41.7348" fill="#222222" rx="7" ry="7" style="stroke:#222222;stroke-width:0.7;"/><rect fill="#F1F1F1" height="25.1727" rx="8.75" ry="8.75" style="stroke:#181818;stroke-width:0.35;" width="168.0424" x="124.8902" y="62.7348"/><text fill="#000000" font-family="sans-serif" font-size="8.4" lengthAdjust="spacing" textLength="154.0424" x="131.8902" y="78.7992">Ng&#432;&#7901;i d&#249;ng/Qu&#7843;n tr&#7883; &#273;&#259;ng nh&#7853;p h&#7879; th&#7889;ng</text><rect fill="none" height="144.5801" style="stroke:#000000;stroke-width:1.05;" width="337.0596" x="7.7" y="94.9074"/><path d="M113.8437,94.9074 L113.8437,103.0422 L106.8437,110.0422 L7.7,110.0422" fill="none" style="stroke:#000000;stroke-width:1.05;"/><text fill="#000000" font-family="sans-serif" font-size="9.8" lengthAdjust="spacing" textLength="99.1437" x="9.8" y="106.1826">Medicine Management</text><rect fill="#F1F1F1" height="25.1727" rx="8.75" ry="8.75" style="stroke:#181818;stroke-width:0.35;" width="162.9318" x="127.4455" y="121.9422"/><text fill="#000000" font-family="sans-serif" font-size="8.4" lengthAdjust="spacing" textLength="148.9318" x="134.4455" y="138.0066">Xem danh s&#225;ch thu&#7889;c (GET /medicines)</text><polygon fill="#F1F1F1" points="182.484,161.1148,235.3388,161.1148,243.7388,169.5148,235.3388,177.9148,182.484,177.9148,174.084,169.5148,182.484,161.1148" style="stroke:#181818;stroke-width:0.35;"/><text fill="#000000" font-family="sans-serif" font-size="7.7" lengthAdjust="spacing" textLength="52.8548" x="182.484" y="172.7031">Vai tr&#242; = Admin</text><text fill="#000000" font-family="sans-serif" font-size="7.7" lengthAdjust="spacing" textLength="9.8431" x="164.2409" y="167.5823">C&#243;</text><text fill="#000000" font-family="sans-serif" font-size="7.7" lengthAdjust="spacing" textLength="16.2572" x="243.7388" y="167.5823">User</text><rect fill="#F1F1F1" height="25.1727" rx="8.75" ry="8.75" style="stroke:#181818;stroke-width:0.35;" width="221.293" x="16.1" y="184.9148"/><text fill="#000000" font-family="sans-serif" font-size="8.4" lengthAdjust="spacing" textLength="207.293" x="23.1" y="200.9793">Th&#234;m/S&#7917;a/X&#243;a thu&#7889;c (POST/PUT/DELETE /medicines)</text><rect fill="#F1F1F1" height="25.1727" rx="8.75" ry="8.75" style="stroke:#181818;stroke-width:0.35;" width="79.3666" x="251.393" y="184.9148"/><text fill="#000000" font-family="sans-serif" font-size="8.4" lengthAdjust="spacing" textLength="65.3666" x="258.393" y="200.9793">Ch&#7881; xem th&#244;ng tin</text><polygon fill="#F1F1F1" points="208.9114,214.2875,217.3114,222.6875,208.9114,231.0875,200.5114,222.6875,208.9114,214.2875" style="stroke:#181818;stroke-width:0.35;"/><rect fill="none" height="165.1009" style="stroke:#000000;stroke-width:1.05;" width="267.4834" x="79.3697" y="246.4875"/><path d="M208.3959,246.4875 L208.3959,254.6223 L201.3959,261.6223 L79.3697,261.6223" fill="none" style="stroke:#000000;stroke-width:1.05;"/><text fill="#000000" font-family="sans-serif" font-size="9.8" lengthAdjust="spacing" textLength="122.0263" x="81.4697" y="257.7627">Location Rack Management</text><rect fill="#F1F1F1" height="25.1727" rx="8.75" ry="8.75" style="stroke:#181818;stroke-width:0.35;" width="159.2076" x="129.3076" y="273.5223"/><text fill="#000000" font-family="sans-serif" font-size="8.4" lengthAdjust="spacing" textLength="145.2076" x="136.3076" y="289.5867">Xem v&#7883; tr&#237; l&#432;u tr&#7919; (GET /locationRacks)</text><rect fill="#F1F1F1" height="25.1727" rx="8.75" ry="8.75" style="stroke:#181818;stroke-width:0.35;" width="231.0834" x="93.3697" y="347.2157"/><text fill="#000000" font-family="sans-serif" font-size="8.4" lengthAdjust="spacing" textLength="217.0834" x="100.3697" y="363.2802">Th&#234;m/S&#7917;a/X&#243;a v&#7883; tr&#237; (POST/PUT/DELETE /locationRacks)</text><polygon fill="#F1F1F1" points="182.484,312.6949,235.3388,312.6949,243.7388,321.0949,235.3388,329.4949,182.484,329.4949,174.084,321.0949,182.484,312.6949" style="stroke:#181818;stroke-width:0.35;"/><text fill="#000000" font-family="sans-serif" font-size="7.7" lengthAdjust="spacing" textLength="9.8431" x="211.7114" y="337.804">C&#243;</text><text fill="#000000" font-family="sans-serif" font-size="7.7" lengthAdjust="spacing" textLength="52.8548" x="182.484" y="324.2832">Vai tr&#242; = Admin</text><polygon fill="#F1F1F1" points="208.9114,386.3884,217.3114,394.7884,208.9114,403.1884,200.5114,394.7884,208.9114,386.3884" style="stroke:#181818;stroke-width:0.35;"/><rect fill="none" height="125.9282" style="stroke:#000000;stroke-width:1.05;" width="252.5537" x="86.8345" y="418.5884"/><path d="M235.4656,418.5884 L235.4656,426.7231 L228.4656,433.7231 L86.8345,433.7231" fill="none" style="stroke:#000000;stroke-width:1.05;"/><text fill="#000000" font-family="sans-serif" font-size="9.8" lengthAdjust="spacing" textLength="141.6311" x="88.9345" y="429.8636">Medicine Category Management</text><rect fill="#F1F1F1" height="25.1727" rx="8.75" ry="8.75" style="stroke:#181818;stroke-width:0.35;" width="216.1537" x="100.8345" y="480.1439"/><text fill="#000000" font-family="sans-serif" font-size="8.4" lengthAdjust="spacing" textLength="202.1537" x="107.8345" y="496.2084">Qu&#7843;n l&#253; danh m&#7909;c thu&#7889;c (CRUD /medicineCategories)</text><polygon fill="#F1F1F1" points="182.484,445.6231,235.3388,445.6231,243.7388,454.0231,235.3388,462.4231,182.484,462.4231,174.084,454.0231,182.484,445.6231" style="stroke:#181818;stroke-width:0.35;"/><text fill="#000000" font-family="sans-serif" font-size="7.7" lengthAdjust="spacing" textLength="9.8431" x="211.7114" y="470.7322">C&#243;</text><text fill="#000000" font-family="sans-serif" font-size="7.7" lengthAdjust="spacing" textLength="52.8548" x="182.484" y="457.2114">Vai tr&#242; = Admin</text><polygon fill="#F1F1F1" points="208.9114,519.3166,217.3114,527.7166,208.9114,536.1166,200.5114,527.7166,208.9114,519.3166" style="stroke:#181818;stroke-width:0.35;"/><rect fill="none" height="125.9282" style="stroke:#000000;stroke-width:1.05;" width="202.6008" x="111.811" y="551.5166"/><path d="M214.6912,551.5166 L214.6912,559.6514 L207.6912,566.6514 L111.811,566.6514" fill="none" style="stroke:#000000;stroke-width:1.05;"/><text fill="#000000" font-family="sans-serif" font-size="9.8" lengthAdjust="spacing" textLength="95.8802" x="113.911" y="562.7918">Supplier Management</text><rect fill="#F1F1F1" height="25.1727" rx="8.75" ry="8.75" style="stroke:#181818;stroke-width:0.35;" width="166.2008" x="125.811" y="613.0722"/><text fill="#000000" font-family="sans-serif" font-size="8.4" lengthAdjust="spacing" textLength="152.2008" x="132.811" y="629.1366">Qu&#7843;n l&#253; nh&#224; cung c&#7845;p (CRUD /suppliers)</text><polygon fill="#F1F1F1" points="182.484,578.5514,235.3388,578.5514,243.7388,586.9514,235.3388,595.3514,182.484,595.3514,174.084,586.9514,182.484,578.5514" style="stroke:#181818;stroke-width:0.35;"/><text fill="#000000" font-family="sans-serif" font-size="7.7" lengthAdjust="spacing" textLength="9.8431" x="211.7114" y="603.6604">C&#243;</text><text fill="#000000" font-family="sans-serif" font-size="7.7" lengthAdjust="spacing" textLength="52.8548" x="182.484" y="590.1396">Vai tr&#242; = Admin</text><polygon fill="#F1F1F1" points="208.9114,652.2448,217.3114,660.6448,208.9114,669.0448,200.5114,660.6448,208.9114,652.2448" style="stroke:#181818;stroke-width:0.35;"/><rect fill="none" height="125.9282" style="stroke:#000000;stroke-width:1.05;" width="219.893" x="103.1649" y="684.4448"/><path d="M238.7229,684.4448 L238.7229,692.5796 L231.7229,699.5796 L103.1649,699.5796" fill="none" style="stroke:#000000;stroke-width:1.05;"/><text fill="#000000" font-family="sans-serif" font-size="9.8" lengthAdjust="spacing" textLength="128.558" x="105.2649" y="695.72">Stock Purchase Management</text><rect fill="#F1F1F1" height="25.1727" rx="8.75" ry="8.75" style="stroke:#181818;stroke-width:0.35;" width="183.493" x="117.1649" y="746.0004"/><text fill="#000000" font-family="sans-serif" font-size="8.4" lengthAdjust="spacing" textLength="169.493" x="124.1649" y="762.0648">Qu&#7843;n l&#253; phi&#7871;u nh&#7853;p h&#224;ng (CRUD /purchases)</text><polygon fill="#F1F1F1" points="182.484,711.4796,235.3388,711.4796,243.7388,719.8796,235.3388,728.2796,182.484,728.2796,174.084,719.8796,182.484,711.4796" style="stroke:#181818;stroke-width:0.35;"/><text fill="#000000" font-family="sans-serif" font-size="7.7" lengthAdjust="spacing" textLength="9.8431" x="211.7114" y="736.5887">C&#243;</text><text fill="#000000" font-family="sans-serif" font-size="7.7" lengthAdjust="spacing" textLength="52.8548" x="182.484" y="723.0679">Vai tr&#242; = Admin</text><polygon fill="#F1F1F1" points="208.9114,785.173,217.3114,793.573,208.9114,801.973,200.5114,793.573,208.9114,785.173" style="stroke:#181818;stroke-width:0.35;"/><rect fill="none" height="165.1009" style="stroke:#000000;stroke-width:1.05;" width="220.351" x="98.7359" y="817.373"/><path d="M209.2388,817.373 L209.2388,825.5078 L202.2388,832.5078 L98.7359,832.5078" fill="none" style="stroke:#000000;stroke-width:1.05;"/><text fill="#000000" font-family="sans-serif" font-size="9.8" lengthAdjust="spacing" textLength="103.5029" x="100.8359" y="828.6482">Employee Management</text><rect fill="#F1F1F1" height="25.1727" rx="8.75" ry="8.75" style="stroke:#181818;stroke-width:0.35;" width="159.1953" x="129.3137" y="878.9286"/><text fill="#000000" font-family="sans-serif" font-size="8.4" lengthAdjust="spacing" textLength="145.1953" x="136.3137" y="894.9931">Qu&#7843;n l&#253; nh&#226;n vi&#234;n (CRUD /employees)</text><polygon fill="#F1F1F1" points="182.484,844.4078,235.3388,844.4078,243.7388,852.8078,235.3388,861.2078,182.484,861.2078,174.084,852.8078,182.484,844.4078" style="stroke:#181818;stroke-width:0.35;"/><text fill="#000000" font-family="sans-serif" font-size="7.7" lengthAdjust="spacing" textLength="9.8431" x="211.7114" y="869.5169">C&#243;</text><text fill="#000000" font-family="sans-serif" font-size="7.7" lengthAdjust="spacing" textLength="52.8548" x="182.484" y="855.9961">Vai tr&#242; = Admin</text><polygon fill="#F1F1F1" points="208.9114,918.1013,217.3114,926.5013,208.9114,934.9013,200.5114,926.5013,208.9114,918.1013" style="stroke:#181818;stroke-width:0.35;"/><rect fill="#F1F1F1" height="25.1727" rx="8.75" ry="8.75" style="stroke:#181818;stroke-width:0.35;" width="206.351" x="105.7359" y="948.9013"/><text fill="#000000" font-family="sans-serif" font-size="8.4" lengthAdjust="spacing" textLength="192.351" x="112.7359" y="964.9657">&#272;&#7893;i m&#7853;t kh&#7849;u (POST /employees/changePassword)</text><rect fill="none" height="204.2735" style="stroke:#000000;stroke-width:1.05;" width="232.4971" x="96.8628" y="989.4739"/><path d="M206.2652,989.4739 L206.2652,997.6087 L199.2652,1004.6087 L96.8628,1004.6087" fill="none" style="stroke:#000000;stroke-width:1.05;"/><text fill="#000000" font-family="sans-serif" font-size="9.8" lengthAdjust="spacing" textLength="102.4023" x="98.9628" y="1000.7491">Customer Management</text><rect fill="#F1F1F1" height="25.1727" rx="8.75" ry="8.75" style="stroke:#181818;stroke-width:0.35;" width="186.7455" x="115.5386" y="1016.5087"/><text fill="#000000" font-family="sans-serif" font-size="8.4" lengthAdjust="spacing" textLength="172.7455" x="122.5386" y="1032.5731">Xem danh s&#225;ch kh&#225;ch h&#224;ng (GET /customers)</text><rect fill="#F1F1F1" height="25.1727" rx="8.75" ry="8.75" style="stroke:#181818;stroke-width:0.35;" width="155.4506" x="131.1861" y="1055.6813"/><text fill="#000000" font-family="sans-serif" font-size="8.4" lengthAdjust="spacing" textLength="141.4506" x="138.1861" y="1071.7458">Th&#234;m kh&#225;ch h&#224;ng (POST /customers)</text><rect fill="#F1F1F1" height="25.1727" rx="8.75" ry="8.75" style="stroke:#181818;stroke-width:0.35;" width="196.0971" x="110.8628" y="1129.3748"/><text fill="#000000" font-family="sans-serif" font-size="8.4" lengthAdjust="spacing" textLength="182.0971" x="117.8628" y="1145.4393">S&#7917;a/X&#243;a kh&#225;ch h&#224;ng (PUT/DELETE /customers)</text><polygon fill="#F1F1F1" points="182.484,1094.854,235.3388,1094.854,243.7388,1103.254,235.3388,1111.654,182.484,1111.654,174.084,1103.254,182.484,1094.854" style="stroke:#181818;stroke-width:0.35;"/><text fill="#000000" font-family="sans-serif" font-size="7.7" lengthAdjust="spacing" textLength="9.8431" x="211.7114" y="1119.9631">C&#243;</text><text fill="#000000" font-family="sans-serif" font-size="7.7" lengthAdjust="spacing" textLength="52.8548" x="182.484" y="1106.4423">Vai tr&#242; = Admin</text><polygon fill="#F1F1F1" points="208.9114,1168.5475,217.3114,1176.9475,208.9114,1185.3475,200.5114,1176.9475,208.9114,1168.5475" style="stroke:#181818;stroke-width:0.35;"/><rect fill="none" height="99.7801" style="stroke:#000000;stroke-width:1.05;" width="164.3277" x="126.7475" y="1200.7475"/><path d="M218.1864,1200.7475 L218.1864,1208.8822 L211.1864,1215.8822 L126.7475,1215.8822" fill="none" style="stroke:#000000;stroke-width:1.05;"/><text fill="#000000" font-family="sans-serif" font-size="9.8" lengthAdjust="spacing" textLength="84.4389" x="128.8475" y="1212.0227">Sales Management</text><rect fill="#F1F1F1" height="25.1727" rx="8.75" ry="8.75" style="stroke:#181818;stroke-width:0.35;" width="137.2602" x="140.2813" y="1227.7822"/><text fill="#000000" font-family="sans-serif" font-size="8.4" lengthAdjust="spacing" textLength="123.2602" x="147.2813" y="1243.8467">&#272;&#259;ng k&#253; b&#225;n h&#224;ng (POST /sales)</text><rect fill="#F1F1F1" height="25.1727" rx="8.75" ry="8.75" style="stroke:#181818;stroke-width:0.35;" width="150.3277" x="133.7475" y="1266.9549"/><text fill="#000000" font-family="sans-serif" font-size="8.4" lengthAdjust="spacing" textLength="136.3277" x="140.7475" y="1283.0193">Ho&#224;n tr&#7843; thu&#7889;c (POST /sales/refund)</text><rect fill="none" height="243.4462" style="stroke:#000000;stroke-width:1.05;" width="230.3369" x="93.8796" y="1307.5275"/><path d="M135.194,1307.5275 L135.194,1315.6623 L128.194,1322.6623 L93.8796,1322.6623" fill="none" style="stroke:#000000;stroke-width:1.05;"/><text fill="#000000" font-family="sans-serif" font-size="9.8" lengthAdjust="spacing" textLength="34.3144" x="95.9796" y="1318.8027">Reports</text><rect fill="#F1F1F1" height="25.1727" rx="8.75" ry="8.75" style="stroke:#181818;stroke-width:0.35;" width="178.8172" x="119.5028" y="1334.5623"/><text fill="#000000" font-family="sans-serif" font-size="8.4" lengthAdjust="spacing" textLength="164.8172" x="126.5028" y="1350.6268">Xem b&#225;o c&#225;o b&#225;n h&#224;ng (GET /reports/sales)</text><rect fill="#F1F1F1" height="25.1727" rx="8.75" ry="8.75" style="stroke:#181818;stroke-width:0.35;" width="216.0635" x="100.8796" y="1373.735"/><text fill="#000000" font-family="sans-serif" font-size="8.4" lengthAdjust="spacing" textLength="202.0635" x="107.8796" y="1389.7994">Xem l&#7907;i nhu&#7853;n theo ng&#224;y (GET /reports/profit-per-day)</text><rect fill="#F1F1F1" height="25.1727" rx="8.75" ry="8.75" style="stroke:#181818;stroke-width:0.35;" width="185.8104" x="116.0062" y="1447.4284"/><text fill="#000000" font-family="sans-serif" font-size="8.4" lengthAdjust="spacing" textLength="171.8104" x="123.0062" y="1463.4929">Xem b&#225;o c&#225;o t&#7891;n kho (GET /reports/inventory)</text><polygon fill="#F1F1F1" points="182.484,1412.9076,235.3388,1412.9076,243.7388,1421.3076,235.3388,1429.7076,182.484,1429.7076,174.084,1421.3076,182.484,1412.9076" style="stroke:#181818;stroke-width:0.35;"/><text fill="#000000" font-family="sans-serif" font-size="7.7" lengthAdjust="spacing" textLength="9.8431" x="211.7114" y="1438.0167">C&#243;</text><text fill="#000000" font-family="sans-serif" font-size="7.7" lengthAdjust="spacing" textLength="52.8548" x="182.484" y="1424.4959">Vai tr&#242; = Admin</text><polygon fill="#F1F1F1" points="208.9114,1486.6011,217.3114,1495.0011,208.9114,1503.4011,200.5114,1495.0011,208.9114,1486.6011" style="stroke:#181818;stroke-width:0.35;"/><rect fill="#F1F1F1" height="25.1727" rx="8.75" ry="8.75" style="stroke:#181818;stroke-width:0.35;" width="204.9646" x="106.4291" y="1517.4011"/><text fill="#000000" font-family="sans-serif" font-size="8.4" lengthAdjust="spacing" textLength="190.9646" x="113.4291" y="1533.4655">Xem d&#7919; li&#7879;u bi&#7875;u &#273;&#7891; (GET /reports/sale-chart-infos)</text><rect fill="none" height="125.9282" style="stroke:#000000;stroke-width:1.05;" width="327.1898" x="47.4165" y="1557.9737"/><path d="M157.905,1557.9737 L157.905,1566.1085 L150.905,1573.1085 L47.4165,1573.1085" fill="none" style="stroke:#000000;stroke-width:1.05;"/><text fill="#000000" font-family="sans-serif" font-size="9.8" lengthAdjust="spacing" textLength="103.4886" x="49.5165" y="1569.2489">Customer Points Config</text><rect fill="#F1F1F1" height="25.1727" rx="8.75" ry="8.75" style="stroke:#181818;stroke-width:0.35;" width="294.9898" x="61.4165" y="1619.5293"/><text fill="#000000" font-family="sans-serif" font-size="8.4" lengthAdjust="spacing" textLength="280.9898" x="68.4165" y="1635.5937">Xem/C&#7853;p nh&#7853;t &#273;i&#7875;m th&#432;&#7903;ng kh&#225;ch h&#224;ng (GET/PUT /customerPointConfigs)</text><polygon fill="#F1F1F1" points="182.484,1585.0085,235.3388,1585.0085,243.7388,1593.4085,235.3388,1601.8085,182.484,1601.8085,174.084,1593.4085,182.484,1585.0085" style="stroke:#181818;stroke-width:0.35;"/><text fill="#000000" font-family="sans-serif" font-size="7.7" lengthAdjust="spacing" textLength="9.8431" x="211.7114" y="1610.1176">C&#243;</text><text fill="#000000" font-family="sans-serif" font-size="7.7" lengthAdjust="spacing" textLength="52.8548" x="182.484" y="1596.5968">Vai tr&#242; = Admin</text><polygon fill="#F1F1F1" points="208.9114,1658.702,217.3114,1667.102,208.9114,1675.502,200.5114,1667.102,208.9114,1658.702" style="stroke:#181818;stroke-width:0.35;"/><rect fill="#F1F1F1" height="25.1727" rx="8.75" ry="8.75" style="stroke:#181818;stroke-width:0.35;" width="100.8465" x="158.4881" y="1697.902"/><text fill="#000000" font-family="sans-serif" font-size="8.4" lengthAdjust="spacing" textLength="86.8465" x="165.4881" y="1713.9664">K&#7871;t th&#250;c phi&#234;n l&#224;m vi&#7879;c</text><ellipse cx="208.9114" cy="1744.7746" fill="none" rx="7.7" ry="7.7" style="stroke:#222222;stroke-width:0.7;"/><ellipse cx="208.9114" cy="1744.7746" fill="#222222" rx="4.2" ry="4.2" style="stroke:#222222;stroke-width:0.7;"/><line style="stroke:#181818;stroke-width:0.7;" x1="208.9114" x2="208.9114" y1="48.7348" y2="62.7348"/><polygon fill="#181818" points="206.1114,55.7348,208.9114,62.7348,211.7114,55.7348,208.9114,58.5348" style="stroke:#181818;stroke-width:0.7;"/><line style="stroke:#181818;stroke-width:0.7;" x1="174.084" x2="126.7465" y1="169.5148" y2="169.5148"/><line style="stroke:#181818;stroke-width:0.7;" x1="126.7465" x2="126.7465" y1="169.5148" y2="184.9148"/><polygon fill="#181818" points="123.9465,177.9148,126.7465,184.9148,129.5465,177.9148,126.7465,180.7148" style="stroke:#181818;stroke-width:0.7;"/><line style="stroke:#181818;stroke-width:0.7;" x1="243.7388" x2="291.0763" y1="169.5148" y2="169.5148"/><line style="stroke:#181818;stroke-width:0.7;" x1="291.0763" x2="291.0763" y1="169.5148" y2="184.9148"/><polygon fill="#181818" points="288.2763,177.9148,291.0763,184.9148,293.8763,177.9148,291.0763,180.7148" style="stroke:#181818;stroke-width:0.7;"/><line style="stroke:#181818;stroke-width:0.7;" x1="126.7465" x2="126.7465" y1="210.0875" y2="222.6875"/><line style="stroke:#181818;stroke-width:0.7;" x1="126.7465" x2="200.5114" y1="222.6875" y2="222.6875"/><polygon fill="#181818" points="193.5114,219.8875,200.5114,222.6875,193.5114,225.4875,196.3114,222.6875" style="stroke:#181818;stroke-width:0.7;"/><line style="stroke:#181818;stroke-width:0.7;" x1="291.0763" x2="291.0763" y1="210.0875" y2="222.6875"/><line style="stroke:#181818;stroke-width:0.7;" x1="291.0763" x2="217.3114" y1="222.6875" y2="222.6875"/><polygon fill="#181818" points="224.3114,219.8875,217.3114,222.6875,224.3114,225.4875,221.5114,222.6875" style="stroke:#181818;stroke-width:0.7;"/><line style="stroke:#181818;stroke-width:0.7;" x1="208.9114" x2="208.9114" y1="147.1148" y2="161.1148"/><polygon fill="#181818" points="206.1114,154.1148,208.9114,161.1148,211.7114,154.1148,208.9114,156.9148" style="stroke:#181818;stroke-width:0.7;"/><line style="stroke:#181818;stroke-width:0.7;" x1="208.9114" x2="208.9114" y1="87.9074" y2="121.9422"/><polygon fill="#181818" points="206.1114,114.9422,208.9114,121.9422,211.7114,114.9422,208.9114,117.7422" style="stroke:#181818;stroke-width:0.7;"/><line style="stroke:#181818;stroke-width:0.7;" x1="208.9114" x2="208.9114" y1="329.4949" y2="347.2157"/><polygon fill="#181818" points="206.1114,340.2157,208.9114,347.2157,211.7114,340.2157,208.9114,343.0157" style="stroke:#181818;stroke-width:0.7;"/><line style="stroke:#181818;stroke-width:0.7;" x1="243.7388" x2="331.4531" y1="321.0949" y2="321.0949"/><polygon fill="#181818" points="328.6531,352.8021,331.4531,359.8021,334.2531,352.8021,331.4531,355.6021" style="stroke:#181818;stroke-width:0.7;"/><line style="stroke:#181818;stroke-width:0.7;" x1="331.4531" x2="331.4531" y1="321.0949" y2="394.7884"/><line style="stroke:#181818;stroke-width:0.7;" x1="331.4531" x2="217.3114" y1="394.7884" y2="394.7884"/><polygon fill="#181818" points="224.3114,391.9884,217.3114,394.7884,224.3114,397.5884,221.5114,394.7884" style="stroke:#181818;stroke-width:0.7;"/><line style="stroke:#181818;stroke-width:0.7;" x1="208.9114" x2="208.9114" y1="372.3884" y2="386.3884"/><polygon fill="#181818" points="206.1114,379.3884,208.9114,386.3884,211.7114,379.3884,208.9114,382.1884" style="stroke:#181818;stroke-width:0.7;"/><line style="stroke:#181818;stroke-width:0.7;" x1="208.9114" x2="208.9114" y1="298.6949" y2="312.6949"/><polygon fill="#181818" points="206.1114,305.6949,208.9114,312.6949,211.7114,305.6949,208.9114,308.4949" style="stroke:#181818;stroke-width:0.7;"/><line style="stroke:#181818;stroke-width:0.7;" x1="208.9114" x2="208.9114" y1="231.0875" y2="273.5223"/><polygon fill="#181818" points="206.1114,266.5223,208.9114,273.5223,211.7114,266.5223,208.9114,269.3223" style="stroke:#181818;stroke-width:0.7;"/><line style="stroke:#181818;stroke-width:0.7;" x1="208.9114" x2="208.9114" y1="462.4231" y2="480.1439"/><polygon fill="#181818" points="206.1114,473.1439,208.9114,480.1439,211.7114,473.1439,208.9114,475.9439" style="stroke:#181818;stroke-width:0.7;"/><line style="stroke:#181818;stroke-width:0.7;" x1="243.7388" x2="323.9882" y1="454.0231" y2="454.0231"/><polygon fill="#181818" points="321.1882,485.7303,323.9882,492.7303,326.7882,485.7303,323.9882,488.5303" style="stroke:#181818;stroke-width:0.7;"/><line style="stroke:#181818;stroke-width:0.7;" x1="323.9882" x2="323.9882" y1="454.0231" y2="527.7166"/><line style="stroke:#181818;stroke-width:0.7;" x1="323.9882" x2="217.3114" y1="527.7166" y2="527.7166"/><polygon fill="#181818" points="224.3114,524.9166,217.3114,527.7166,224.3114,530.5166,221.5114,527.7166" style="stroke:#181818;stroke-width:0.7;"/><line style="stroke:#181818;stroke-width:0.7;" x1="208.9114" x2="208.9114" y1="505.3166" y2="519.3166"/><polygon fill="#181818" points="206.1114,512.3166,208.9114,519.3166,211.7114,512.3166,208.9114,515.1166" style="stroke:#181818;stroke-width:0.7;"/><line style="stroke:#181818;stroke-width:0.7;" x1="208.9114" x2="208.9114" y1="403.1884" y2="445.6231"/><polygon fill="#181818" points="206.1114,438.6231,208.9114,445.6231,211.7114,438.6231,208.9114,441.4231" style="stroke:#181818;stroke-width:0.7;"/><line style="stroke:#181818;stroke-width:0.7;" x1="208.9114" x2="208.9114" y1="595.3514" y2="613.0722"/><polygon fill="#181818" points="206.1114,606.0722,208.9114,613.0722,211.7114,606.0722,208.9114,608.8722" style="stroke:#181818;stroke-width:0.7;"/><line style="stroke:#181818;stroke-width:0.7;" x1="243.7388" x2="299.0118" y1="586.9514" y2="586.9514"/><polygon fill="#181818" points="296.2118,618.6585,299.0118,625.6585,301.8118,618.6585,299.0118,621.4585" style="stroke:#181818;stroke-width:0.7;"/><line style="stroke:#181818;stroke-width:0.7;" x1="299.0118" x2="299.0118" y1="586.9514" y2="660.6448"/><line style="stroke:#181818;stroke-width:0.7;" x1="299.0118" x2="217.3114" y1="660.6448" y2="660.6448"/><polygon fill="#181818" points="224.3114,657.8448,217.3114,660.6448,224.3114,663.4448,221.5114,660.6448" style="stroke:#181818;stroke-width:0.7;"/><line style="stroke:#181818;stroke-width:0.7;" x1="208.9114" x2="208.9114" y1="638.2448" y2="652.2448"/><polygon fill="#181818" points="206.1114,645.2448,208.9114,652.2448,211.7114,645.2448,208.9114,648.0448" style="stroke:#181818;stroke-width:0.7;"/><line style="stroke:#181818;stroke-width:0.7;" x1="208.9114" x2="208.9114" y1="536.1166" y2="578.5514"/><polygon fill="#181818" points="206.1114,571.5514,208.9114,578.5514,211.7114,571.5514,208.9114,574.3514" style="stroke:#181818;stroke-width:0.7;"/><line style="stroke:#181818;stroke-width:0.7;" x1="208.9114" x2="208.9114" y1="728.2796" y2="746.0004"/><polygon fill="#181818" points="206.1114,739.0004,208.9114,746.0004,211.7114,739.0004,208.9114,741.8004" style="stroke:#181818;stroke-width:0.7;"/><line style="stroke:#181818;stroke-width:0.7;" x1="243.7388" x2="307.6579" y1="719.8796" y2="719.8796"/><polygon fill="#181818" points="304.8579,751.5867,307.6579,758.5867,310.4579,751.5867,307.6579,754.3867" style="stroke:#181818;stroke-width:0.7;"/><line style="stroke:#181818;stroke-width:0.7;" x1="307.6579" x2="307.6579" y1="719.8796" y2="793.573"/><line style="stroke:#181818;stroke-width:0.7;" x1="307.6579" x2="217.3114" y1="793.573" y2="793.573"/><polygon fill="#181818" points="224.3114,790.773,217.3114,793.573,224.3114,796.373,221.5114,793.573" style="stroke:#181818;stroke-width:0.7;"/><line style="stroke:#181818;stroke-width:0.7;" x1="208.9114" x2="208.9114" y1="771.173" y2="785.173"/><polygon fill="#181818" points="206.1114,778.173,208.9114,785.173,211.7114,778.173,208.9114,780.973" style="stroke:#181818;stroke-width:0.7;"/><line style="stroke:#181818;stroke-width:0.7;" x1="208.9114" x2="208.9114" y1="669.0448" y2="711.4796"/><polygon fill="#181818" points="206.1114,704.4796,208.9114,711.4796,211.7114,704.4796,208.9114,707.2796" style="stroke:#181818;stroke-width:0.7;"/><line style="stroke:#181818;stroke-width:0.7;" x1="208.9114" x2="208.9114" y1="861.2078" y2="878.9286"/><polygon fill="#181818" points="206.1114,871.9286,208.9114,878.9286,211.7114,871.9286,208.9114,874.7286" style="stroke:#181818;stroke-width:0.7;"/><line style="stroke:#181818;stroke-width:0.7;" x1="243.7388" x2="295.509" y1="852.8078" y2="852.8078"/><polygon fill="#181818" points="292.709,884.5149,295.509,891.5149,298.309,884.5149,295.509,887.3149" style="stroke:#181818;stroke-width:0.7;"/><line style="stroke:#181818;stroke-width:0.7;" x1="295.509" x2="295.509" y1="852.8078" y2="926.5013"/><line style="stroke:#181818;stroke-width:0.7;" x1="295.509" x2="217.3114" y1="926.5013" y2="926.5013"/><polygon fill="#181818" points="224.3114,923.7013,217.3114,926.5013,224.3114,929.3013,221.5114,926.5013" style="stroke:#181818;stroke-width:0.7;"/><line style="stroke:#181818;stroke-width:0.7;" x1="208.9114" x2="208.9114" y1="904.1013" y2="918.1013"/><polygon fill="#181818" points="206.1114,911.1013,208.9114,918.1013,211.7114,911.1013,208.9114,913.9013" style="stroke:#181818;stroke-width:0.7;"/><line style="stroke:#181818;stroke-width:0.7;" x1="208.9114" x2="208.9114" y1="934.9013" y2="948.9013"/><polygon fill="#181818" points="206.1114,941.9013,208.9114,948.9013,211.7114,941.9013,208.9114,944.7013" style="stroke:#181818;stroke-width:0.7;"/><line style="stroke:#181818;stroke-width:0.7;" x1="208.9114" x2="208.9114" y1="801.973" y2="844.4078"/><polygon fill="#181818" points="206.1114,837.4078,208.9114,844.4078,211.7114,837.4078,208.9114,840.2078" style="stroke:#181818;stroke-width:0.7;"/><line style="stroke:#181818;stroke-width:0.7;" x1="208.9114" x2="208.9114" y1="1041.6813" y2="1055.6813"/><polygon fill="#181818" points="206.1114,1048.6813,208.9114,1055.6813,211.7114,1048.6813,208.9114,1051.4813" style="stroke:#181818;stroke-width:0.7;"/><line style="stroke:#181818;stroke-width:0.7;" x1="208.9114" x2="208.9114" y1="1111.654" y2="1129.3748"/><polygon fill="#181818" points="206.1114,1122.3748,208.9114,1129.3748,211.7114,1122.3748,208.9114,1125.1748" style="stroke:#181818;stroke-width:0.7;"/><line style="stroke:#181818;stroke-width:0.7;" x1="243.7388" x2="313.9599" y1="1103.254" y2="1103.254"/><polygon fill="#181818" points="311.1599,1134.9611,313.9599,1141.9611,316.7599,1134.9611,313.9599,1137.7611" style="stroke:#181818;stroke-width:0.7;"/><line style="stroke:#181818;stroke-width:0.7;" x1="313.9599" x2="313.9599" y1="1103.254" y2="1176.9475"/><line style="stroke:#181818;stroke-width:0.7;" x1="313.9599" x2="217.3114" y1="1176.9475" y2="1176.9475"/><polygon fill="#181818" points="224.3114,1174.1475,217.3114,1176.9475,224.3114,1179.7475,221.5114,1176.9475" style="stroke:#181818;stroke-width:0.7;"/><line style="stroke:#181818;stroke-width:0.7;" x1="208.9114" x2="208.9114" y1="1154.5475" y2="1168.5475"/><polygon fill="#181818" points="206.1114,1161.5475,208.9114,1168.5475,211.7114,1161.5475,208.9114,1164.3475" style="stroke:#181818;stroke-width:0.7;"/><line style="stroke:#181818;stroke-width:0.7;" x1="208.9114" x2="208.9114" y1="1080.854" y2="1094.854"/><polygon fill="#181818" points="206.1114,1087.854,208.9114,1094.854,211.7114,1087.854,208.9114,1090.654" style="stroke:#181818;stroke-width:0.7;"/><line style="stroke:#181818;stroke-width:0.7;" x1="208.9114" x2="208.9114" y1="974.0739" y2="1016.5087"/><polygon fill="#181818" points="206.1114,1009.5087,208.9114,1016.5087,211.7114,1009.5087,208.9114,1012.3087" style="stroke:#181818;stroke-width:0.7;"/><line style="stroke:#181818;stroke-width:0.7;" x1="208.9114" x2="208.9114" y1="1252.9549" y2="1266.9549"/><polygon fill="#181818" points="206.1114,1259.9549,208.9114,1266.9549,211.7114,1259.9549,208.9114,1262.7549" style="stroke:#181818;stroke-width:0.7;"/><line style="stroke:#181818;stroke-width:0.7;" x1="208.9114" x2="208.9114" y1="1185.3475" y2="1227.7822"/><polygon fill="#181818" points="206.1114,1220.7822,208.9114,1227.7822,211.7114,1220.7822,208.9114,1223.5822" style="stroke:#181818;stroke-width:0.7;"/><line style="stroke:#181818;stroke-width:0.7;" x1="208.9114" x2="208.9114" y1="1359.735" y2="1373.735"/><polygon fill="#181818" points="206.1114,1366.735,208.9114,1373.735,211.7114,1366.735,208.9114,1369.535" style="stroke:#181818;stroke-width:0.7;"/><line style="stroke:#181818;stroke-width:0.7;" x1="208.9114" x2="208.9114" y1="1429.7076" y2="1447.4284"/><polygon fill="#181818" points="206.1114,1440.4284,208.9114,1447.4284,211.7114,1440.4284,208.9114,1443.2284" style="stroke:#181818;stroke-width:0.7;"/><line style="stroke:#181818;stroke-width:0.7;" x1="243.7388" x2="308.8166" y1="1421.3076" y2="1421.3076"/><polygon fill="#181818" points="306.0166,1453.0147,308.8166,1460.0147,311.6166,1453.0147,308.8166,1455.8147" style="stroke:#181818;stroke-width:0.7;"/><line style="stroke:#181818;stroke-width:0.7;" x1="308.8166" x2="308.8166" y1="1421.3076" y2="1495.0011"/><line style="stroke:#181818;stroke-width:0.7;" x1="308.8166" x2="217.3114" y1="1495.0011" y2="1495.0011"/><polygon fill="#181818" points="224.3114,1492.2011,217.3114,1495.0011,224.3114,1497.8011,221.5114,1495.0011" style="stroke:#181818;stroke-width:0.7;"/><line style="stroke:#181818;stroke-width:0.7;" x1="208.9114" x2="208.9114" y1="1472.6011" y2="1486.6011"/><polygon fill="#181818" points="206.1114,1479.6011,208.9114,1486.6011,211.7114,1479.6011,208.9114,1482.4011" style="stroke:#181818;stroke-width:0.7;"/><line style="stroke:#181818;stroke-width:0.7;" x1="208.9114" x2="208.9114" y1="1398.9076" y2="1412.9076"/><polygon fill="#181818" points="206.1114,1405.9076,208.9114,1412.9076,211.7114,1405.9076,208.9114,1408.7076" style="stroke:#181818;stroke-width:0.7;"/><line style="stroke:#181818;stroke-width:0.7;" x1="208.9114" x2="208.9114" y1="1503.4011" y2="1517.4011"/><polygon fill="#181818" points="206.1114,1510.4011,208.9114,1517.4011,211.7114,1510.4011,208.9114,1513.2011" style="stroke:#181818;stroke-width:0.7;"/><line style="stroke:#181818;stroke-width:0.7;" x1="208.9114" x2="208.9114" y1="1292.1275" y2="1334.5623"/><polygon fill="#181818" points="206.1114,1327.5623,208.9114,1334.5623,211.7114,1327.5623,208.9114,1330.3623" style="stroke:#181818;stroke-width:0.7;"/><line style="stroke:#181818;stroke-width:0.7;" x1="208.9114" x2="208.9114" y1="1601.8085" y2="1619.5293"/><polygon fill="#181818" points="206.1114,1612.5293,208.9114,1619.5293,211.7114,1612.5293,208.9114,1615.3293" style="stroke:#181818;stroke-width:0.7;"/><line style="stroke:#181818;stroke-width:0.7;" x1="243.7388" x2="363.4063" y1="1593.4085" y2="1593.4085"/><polygon fill="#181818" points="360.6063,1625.1156,363.4063,1632.1156,366.2063,1625.1156,363.4063,1627.9156" style="stroke:#181818;stroke-width:0.7;"/><line style="stroke:#181818;stroke-width:0.7;" x1="363.4063" x2="363.4063" y1="1593.4085" y2="1667.102"/><line style="stroke:#181818;stroke-width:0.7;" x1="363.4063" x2="217.3114" y1="1667.102" y2="1667.102"/><polygon fill="#181818" points="224.3114,1664.302,217.3114,1667.102,224.3114,1669.902,221.5114,1667.102" style="stroke:#181818;stroke-width:0.7;"/><line style="stroke:#181818;stroke-width:0.7;" x1="208.9114" x2="208.9114" y1="1644.702" y2="1658.702"/><polygon fill="#181818" points="206.1114,1651.702,208.9114,1658.702,211.7114,1651.702,208.9114,1654.502" style="stroke:#181818;stroke-width:0.7;"/><line style="stroke:#181818;stroke-width:0.7;" x1="208.9114" x2="208.9114" y1="1542.5737" y2="1585.0085"/><polygon fill="#181818" points="206.1114,1578.0085,208.9114,1585.0085,211.7114,1578.0085,208.9114,1580.8085" style="stroke:#181818;stroke-width:0.7;"/><line style="stroke:#181818;stroke-width:0.7;" x1="208.9114" x2="208.9114" y1="1675.502" y2="1697.902"/><polygon fill="#181818" points="206.1114,1690.902,208.9114,1697.902,211.7114,1690.902,208.9114,1693.702" style="stroke:#181818;stroke-width:0.7;"/><line style="stroke:#181818;stroke-width:0.7;" x1="208.9114" x2="208.9114" y1="1723.0746" y2="1737.0746"/><polygon fill="#181818" points="206.1114,1730.0746,208.9114,1737.0746,211.7114,1730.0746,208.9114,1732.8746" style="stroke:#181818;stroke-width:0.7;"/><!--SRC=[hLM_Qzj05DxrLpmoEOFHdj0XEAQ59gqREoNhvNoM3ajtGdToQqgd3ALqIIWTIvsQ30sOXgPBBKe7cVmV-a_wJfPZItP20lOW2VpU-xxl_THSUmnsgEOzhlkmouaJ4X-gq719w1FQXtqYYCDy9ZGq-qeptxAK9g6shAqNpirL6d_bq4x-2CT-5QNZeG0Tfl4dc9nDJeG3mat7em3SDFu06fzdmjcsh03zkUPImCO-QtFA1Ll0sO1t5k1lwuZvq2R21PMSKnVz8mn0eVAqtWBRpntLvdPcpJjGUKqumYU_u0dij7qkDj672QZKaklDp2WBstAJIzzkfl68s4V9DPa7Rhnijkp6OSlUhU_LM_Lb4EOf1fL3nSA5U3NKzH7U8bdj9hzHjEOYDnTjth7U5mJlIKgohmD2ktUfxfaKef8HU3TNKPRIdxbkB_StxclGFaTQLhyAQfMasnhMY6QE3FihP3sSOjv6Nl9tMdm_ZI_el4QrWyFTUM5oHCxkuzUCWi3ZB5mNBU4c0w0HLfgcuujWnadbCFTIqHAhteX2wXB5raKeS7aw_XVTJbioG6uvgo37kezLtGyysMTiZGdwBg37aqiney5oY2ADp75ociPVEDPvFDBGHGa_ecapBdZPg44uh46KUYF3DWOfAgX5Iaj_POdBQwJhPgyyITbCqTnxHcuw9YNBAQEowSFpip1qfS0B8rSElxA7YCVKAg6JqspdTh42nycvA19Nnckcxvd4lynQ6G-Bso-tiqFMYSHocWzO84Ej2gb5A0dKF1P1ixo6K_CYjl7nqdZ8iKsmPKR2P4k2S991l-GNXBB3TJLWORLD-e_EU96TJkFF0bClIo1Sz329kBMMEpFh7BDwFOu7B89ZV9r4UDimr0g9LMpIK5Uvw4XrTuSs91TQGKsA3dSUFsR8oQvbOvvDkqOsXfKvFkOQVpCDKEvmizNdlPKHcC8ljTdMSrmasXooCJLhnKombmpm8faCq6sy_JAm_WC0]--></g></svg>