<svg xmlns="http://www.w3.org/2000/svg" xmlns:xlink="http://www.w3.org/1999/xlink" contentStyleType="text/css" data-diagram-type="ACTIVITY" height="416.4px" preserveAspectRatio="none" style="width:2148px;height:416px;background:#FFFFFF;" version="1.1" viewBox="0 0 2148 416" width="2148px" zoomAndPan="magnify"><title>Activity Diagram - Pharmacy Management System</title><defs/><g><g class="title" data-source-line="1"><text fill="#000000" font-family="sans-serif" font-size="8.4" font-weight="bold" lengthAdjust="spacing" textLength="199.8076" x="973.236" y="21.0645">Activity Diagram - Pharmacy Management System</text></g><ellipse cx="1062.6398" cy="35.7727" fill="#222222" rx="6" ry="6" style="stroke:#222222;stroke-width:0.6;"/><rect fill="#F1F1F1" height="21.5766" rx="7.5" ry="7.5" style="stroke:#181818;stroke-width:0.3;" width="144.0363" x="990.6217" y="53.7727"/><text fill="#000000" font-family="sans-serif" font-size="7.2" lengthAdjust="spacing" textLength="132.0363" x="996.6217" y="67.5422">Ng&#432;&#7901;i d&#249;ng/Qu&#7843;n tr&#7883; &#273;&#259;ng nh&#7853;p h&#7879; th&#7889;ng</text><rect fill="#555555" height="3.6" rx="1.5" ry="1.5" style="stroke:#555555;stroke-width:0.6;" width="2134.8797" x="6.6" y="87.3492"/><rect fill="none" height="137.7258" style="stroke:#000000;stroke-width:0.9;" width="284.1082" x="13.8" y="149.915"/><path d="M104.7803,149.915 L104.7803,156.8877 L98.7803,162.8877 L13.8,162.8877" fill="none" style="stroke:#000000;stroke-width:0.9;"/><text fill="#000000" font-family="sans-serif" font-size="8.4" lengthAdjust="spacing" textLength="84.9803" x="15.6" y="159.5795">Medicine Management</text><rect fill="#F1F1F1" height="21.5766" rx="7.5" ry="7.5" style="stroke:#181818;stroke-width:0.3;" width="139.6559" x="116.439" y="173.0877"/><text fill="#000000" font-family="sans-serif" font-size="7.2" lengthAdjust="spacing" textLength="127.6559" x="122.439" y="186.8572">Xem danh s&#225;ch thu&#7889;c (GET /medicines)</text><polygon fill="#F1F1F1" points="163.6148,215.6643,208.9189,215.6643,216.1189,222.8643,208.9189,230.0643,163.6148,230.0643,156.4148,222.8643,163.6148,215.6643" style="stroke:#181818;stroke-width:0.3;"/><text fill="#000000" font-family="sans-serif" font-size="6.6" lengthAdjust="spacing" textLength="45.3041" x="163.6148" y="225.5971">Vai tr&#242; = Admin</text><text fill="#000000" font-family="sans-serif" font-size="6.6" lengthAdjust="spacing" textLength="8.4369" x="147.9779" y="221.2078">C&#243;</text><text fill="#000000" font-family="sans-serif" font-size="6.6" lengthAdjust="spacing" textLength="13.9348" x="216.1189" y="221.2078">User</text><rect fill="#F1F1F1" height="21.5766" rx="7.5" ry="7.5" style="stroke:#181818;stroke-width:0.3;" width="189.6797" x="21" y="236.0643"/><text fill="#000000" font-family="sans-serif" font-size="7.2" lengthAdjust="spacing" textLength="177.6797" x="27" y="249.8338">Th&#234;m/S&#7917;a/X&#243;a thu&#7889;c (POST/PUT/DELETE /medicines)</text><rect fill="#F1F1F1" height="21.5766" rx="7.5" ry="7.5" style="stroke:#181818;stroke-width:0.3;" width="68.0285" x="222.6797" y="236.0643"/><text fill="#000000" font-family="sans-serif" font-size="7.2" lengthAdjust="spacing" textLength="56.0285" x="228.6797" y="249.8338">Ch&#7881; xem th&#244;ng tin</text><polygon fill="#F1F1F1" points="186.2669,261.2408,193.4669,268.4408,186.2669,275.6408,179.0669,268.4408,186.2669,261.2408" style="stroke:#181818;stroke-width:0.3;"/><rect fill="none" height="158.5043" style="stroke:#000000;stroke-width:0.9;" width="220.8715" x="303.9082" y="139.5258"/><path d="M414.5021,139.5258 L414.5021,146.4984 L408.5021,152.4984 L303.9082,152.4984" fill="none" style="stroke:#000000;stroke-width:0.9;"/><text fill="#000000" font-family="sans-serif" font-size="8.4" lengthAdjust="spacing" textLength="104.5939" x="305.7082" y="149.1902">Location Rack Management</text><rect fill="#F1F1F1" height="21.5766" rx="7.5" ry="7.5" style="stroke:#181818;stroke-width:0.3;" width="136.4637" x="341.9121" y="162.6984"/><text fill="#000000" font-family="sans-serif" font-size="7.2" lengthAdjust="spacing" textLength="124.4637" x="347.9121" y="176.468">Xem v&#7883; tr&#237; l&#432;u tr&#7919; (GET /locationRacks)</text><rect fill="#F1F1F1" height="21.5766" rx="7.5" ry="7.5" style="stroke:#181818;stroke-width:0.3;" width="198.0715" x="311.1082" y="234.8643"/><text fill="#000000" font-family="sans-serif" font-size="7.2" lengthAdjust="spacing" textLength="186.0715" x="317.1082" y="248.6338">Th&#234;m/S&#7917;a/X&#243;a v&#7883; tr&#237; (POST/PUT/DELETE /locationRacks)</text><polygon fill="#F1F1F1" points="387.4919,205.275,432.796,205.275,439.996,212.475,432.796,219.675,387.4919,219.675,380.2919,212.475,387.4919,205.275" style="stroke:#181818;stroke-width:0.3;"/><text fill="#000000" font-family="sans-serif" font-size="6.6" lengthAdjust="spacing" textLength="8.4369" x="412.5439" y="226.7971">C&#243;</text><text fill="#000000" font-family="sans-serif" font-size="6.6" lengthAdjust="spacing" textLength="45.3041" x="387.4919" y="215.2078">Vai tr&#242; = Admin</text><polygon fill="#F1F1F1" points="410.1439,271.6301,417.3439,278.8301,410.1439,286.0301,402.9439,278.8301,410.1439,271.6301" style="stroke:#181818;stroke-width:0.3;"/><rect fill="none" height="115.9277" style="stroke:#000000;stroke-width:0.9;" width="208.0746" x="530.7797" y="160.8141"/><path d="M658.1777,160.8141 L658.1777,167.7867 L652.1777,173.7867 L530.7797,173.7867" fill="none" style="stroke:#000000;stroke-width:0.9;"/><text fill="#000000" font-family="sans-serif" font-size="8.4" lengthAdjust="spacing" textLength="121.398" x="532.5797" y="170.4785">Medicine Category Management</text><rect fill="#F1F1F1" height="21.5766" rx="7.5" ry="7.5" style="stroke:#181818;stroke-width:0.3;" width="185.2746" x="537.9797" y="213.576"/><text fill="#000000" font-family="sans-serif" font-size="7.2" lengthAdjust="spacing" textLength="173.2746" x="543.9797" y="227.3455">Qu&#7843;n l&#253; danh m&#7909;c thu&#7889;c (CRUD /medicineCategories)</text><polygon fill="#F1F1F1" points="607.9649,183.9867,653.269,183.9867,660.469,191.1867,653.269,198.3867,607.9649,198.3867,600.7649,191.1867,607.9649,183.9867" style="stroke:#181818;stroke-width:0.3;"/><text fill="#000000" font-family="sans-serif" font-size="6.6" lengthAdjust="spacing" textLength="8.4369" x="633.017" y="205.5088">C&#243;</text><text fill="#000000" font-family="sans-serif" font-size="6.6" lengthAdjust="spacing" textLength="45.3041" x="607.9649" y="193.9195">Vai tr&#242; = Admin</text><polygon fill="#F1F1F1" points="630.617,250.3418,637.817,257.5418,630.617,264.7418,623.417,257.5418,630.617,250.3418" style="stroke:#181818;stroke-width:0.3;"/><rect fill="none" height="115.9277" style="stroke:#000000;stroke-width:0.9;" width="165.2578" x="744.8543" y="160.8141"/><path d="M833.0373,160.8141 L833.0373,167.7867 L827.0373,173.7867 L744.8543,173.7867" fill="none" style="stroke:#000000;stroke-width:0.9;"/><text fill="#000000" font-family="sans-serif" font-size="8.4" lengthAdjust="spacing" textLength="82.183" x="746.6543" y="170.4785">Supplier Management</text><rect fill="#F1F1F1" height="21.5766" rx="7.5" ry="7.5" style="stroke:#181818;stroke-width:0.3;" width="142.4578" x="752.0543" y="213.576"/><text fill="#000000" font-family="sans-serif" font-size="7.2" lengthAdjust="spacing" textLength="130.4578" x="758.0543" y="227.3455">Qu&#7843;n l&#253; nh&#224; cung c&#7845;p (CRUD /suppliers)</text><polygon fill="#F1F1F1" points="800.6312,183.9867,845.9353,183.9867,853.1353,191.1867,845.9353,198.3867,800.6312,198.3867,793.4312,191.1867,800.6312,183.9867" style="stroke:#181818;stroke-width:0.3;"/><text fill="#000000" font-family="sans-serif" font-size="6.6" lengthAdjust="spacing" textLength="8.4369" x="825.6832" y="205.5088">C&#243;</text><text fill="#000000" font-family="sans-serif" font-size="6.6" lengthAdjust="spacing" textLength="45.3041" x="800.6312" y="193.9195">Vai tr&#242; = Admin</text><polygon fill="#F1F1F1" points="823.2832,250.3418,830.4832,257.5418,823.2832,264.7418,816.0832,257.5418,823.2832,250.3418" style="stroke:#181818;stroke-width:0.3;"/><rect fill="none" height="115.9277" style="stroke:#000000;stroke-width:0.9;" width="183.6797" x="916.1121" y="160.8141"/><path d="M1032.3047,160.8141 L1032.3047,167.7867 L1026.3047,173.7867 L916.1121,173.7867" fill="none" style="stroke:#000000;stroke-width:0.9;"/><text fill="#000000" font-family="sans-serif" font-size="8.4" lengthAdjust="spacing" textLength="110.1926" x="917.9121" y="170.4785">Stock Purchase Management</text><rect fill="#F1F1F1" height="21.5766" rx="7.5" ry="7.5" style="stroke:#181818;stroke-width:0.3;" width="157.2797" x="923.3121" y="213.576"/><text fill="#000000" font-family="sans-serif" font-size="7.2" lengthAdjust="spacing" textLength="145.2797" x="929.3121" y="227.3455">Qu&#7843;n l&#253; phi&#7871;u nh&#7853;p h&#224;ng (CRUD /purchases)</text><polygon fill="#F1F1F1" points="979.2999,183.9867,1024.604,183.9867,1031.804,191.1867,1024.604,198.3867,979.2999,198.3867,972.0999,191.1867,979.2999,183.9867" style="stroke:#181818;stroke-width:0.3;"/><text fill="#000000" font-family="sans-serif" font-size="6.6" lengthAdjust="spacing" textLength="8.4369" x="1004.352" y="205.5088">C&#243;</text><text fill="#000000" font-family="sans-serif" font-size="6.6" lengthAdjust="spacing" textLength="45.3041" x="979.2999" y="193.9195">Vai tr&#242; = Admin</text><polygon fill="#F1F1F1" points="1001.952,250.3418,1009.152,257.5418,1001.952,264.7418,994.752,257.5418,1001.952,250.3418" style="stroke:#181818;stroke-width:0.3;"/><rect fill="none" height="158.5043" style="stroke:#000000;stroke-width:0.9;" width="188.8723" x="1116.5918" y="139.5258"/><path d="M1211.3086,139.5258 L1211.3086,146.4984 L1205.3086,152.4984 L1116.5918,152.4984" fill="none" style="stroke:#000000;stroke-width:0.9;"/><text fill="#000000" font-family="sans-serif" font-size="8.4" lengthAdjust="spacing" textLength="88.7168" x="1118.3918" y="149.1902">Employee Management</text><rect fill="#F1F1F1" height="21.5766" rx="7.5" ry="7.5" style="stroke:#181818;stroke-width:0.3;" width="136.4531" x="1142.8014" y="192.2877"/><text fill="#000000" font-family="sans-serif" font-size="7.2" lengthAdjust="spacing" textLength="124.4531" x="1148.8014" y="206.0572">Qu&#7843;n l&#253; nh&#226;n vi&#234;n (CRUD /employees)</text><polygon fill="#F1F1F1" points="1188.3759,162.6984,1233.68,162.6984,1240.88,169.8984,1233.68,177.0984,1188.3759,177.0984,1181.1759,169.8984,1188.3759,162.6984" style="stroke:#181818;stroke-width:0.3;"/><text fill="#000000" font-family="sans-serif" font-size="6.6" lengthAdjust="spacing" textLength="8.4369" x="1213.4279" y="184.2205">C&#243;</text><text fill="#000000" font-family="sans-serif" font-size="6.6" lengthAdjust="spacing" textLength="45.3041" x="1188.3759" y="172.6313">Vai tr&#242; = Admin</text><polygon fill="#F1F1F1" points="1211.0279,229.0535,1218.2279,236.2535,1211.0279,243.4535,1203.8279,236.2535,1211.0279,229.0535" style="stroke:#181818;stroke-width:0.3;"/><rect fill="#F1F1F1" height="21.5766" rx="7.5" ry="7.5" style="stroke:#181818;stroke-width:0.3;" width="176.8723" x="1122.5918" y="264.4535"/><text fill="#000000" font-family="sans-serif" font-size="7.2" lengthAdjust="spacing" textLength="164.8723" x="1128.5918" y="278.223">&#272;&#7893;i m&#7853;t kh&#7849;u (POST /employees/changePassword)</text><rect fill="none" height="201.0809" style="stroke:#000000;stroke-width:0.9;" width="190.8832" x="1311.4641" y="118.2375"/><path d="M1405.2375,118.2375 L1405.2375,125.2102 L1399.2375,131.2102 L1311.4641,131.2102" fill="none" style="stroke:#000000;stroke-width:0.9;"/><text fill="#000000" font-family="sans-serif" font-size="8.4" lengthAdjust="spacing" textLength="87.7734" x="1313.2641" y="127.902">Customer Management</text><rect fill="#F1F1F1" height="21.5766" rx="7.5" ry="7.5" style="stroke:#181818;stroke-width:0.3;" width="160.0676" x="1322.6719" y="141.4102"/><text fill="#000000" font-family="sans-serif" font-size="7.2" lengthAdjust="spacing" textLength="148.0676" x="1328.6719" y="155.1797">Xem danh s&#225;ch kh&#225;ch h&#224;ng (GET /customers)</text><rect fill="#F1F1F1" height="21.5766" rx="7.5" ry="7.5" style="stroke:#181818;stroke-width:0.3;" width="133.2434" x="1336.084" y="183.9867"/><text fill="#000000" font-family="sans-serif" font-size="7.2" lengthAdjust="spacing" textLength="121.2434" x="1342.084" y="197.7563">Th&#234;m kh&#225;ch h&#224;ng (POST /customers)</text><rect fill="#F1F1F1" height="21.5766" rx="7.5" ry="7.5" style="stroke:#181818;stroke-width:0.3;" width="168.0832" x="1318.6641" y="256.1525"/><text fill="#000000" font-family="sans-serif" font-size="7.2" lengthAdjust="spacing" textLength="156.0832" x="1324.6641" y="269.9221">S&#7917;a/X&#243;a kh&#225;ch h&#224;ng (PUT/DELETE /customers)</text><polygon fill="#F1F1F1" points="1380.0536,226.5633,1425.3577,226.5633,1432.5577,233.7633,1425.3577,240.9633,1380.0536,240.9633,1372.8536,233.7633,1380.0536,226.5633" style="stroke:#181818;stroke-width:0.3;"/><text fill="#000000" font-family="sans-serif" font-size="6.6" lengthAdjust="spacing" textLength="8.4369" x="1405.1057" y="248.0854">C&#243;</text><text fill="#000000" font-family="sans-serif" font-size="6.6" lengthAdjust="spacing" textLength="45.3041" x="1380.0536" y="236.4961">Vai tr&#242; = Admin</text><polygon fill="#F1F1F1" points="1402.7057,292.9184,1409.9057,300.1184,1402.7057,307.3184,1395.5057,300.1184,1402.7057,292.9184" style="stroke:#181818;stroke-width:0.3;"/><rect fill="none" height="99.3258" style="stroke:#000000;stroke-width:0.9;" width="140.8523" x="1508.3473" y="169.115"/><path d="M1586.7234,169.115 L1586.7234,176.0877 L1580.7234,182.0877 L1508.3473,182.0877" fill="none" style="stroke:#000000;stroke-width:0.9;"/><text fill="#000000" font-family="sans-serif" font-size="8.4" lengthAdjust="spacing" textLength="72.3762" x="1510.1473" y="178.7795">Sales Management</text><rect fill="#F1F1F1" height="21.5766" rx="7.5" ry="7.5" style="stroke:#181818;stroke-width:0.3;" width="117.6516" x="1519.9477" y="192.2877"/><text fill="#000000" font-family="sans-serif" font-size="7.2" lengthAdjust="spacing" textLength="105.6516" x="1525.9477" y="206.0572">&#272;&#259;ng k&#253; b&#225;n h&#224;ng (POST /sales)</text><rect fill="#F1F1F1" height="21.5766" rx="7.5" ry="7.5" style="stroke:#181818;stroke-width:0.3;" width="128.8523" x="1514.3473" y="234.8643"/><text fill="#000000" font-family="sans-serif" font-size="7.2" lengthAdjust="spacing" textLength="116.8523" x="1520.3473" y="248.6338">Ho&#224;n tr&#7843; thu&#7889;c (POST /sales/refund)</text><rect fill="none" height="238.8574" style="stroke:#000000;stroke-width:0.9;" width="197.4316" x="1655.1996" y="96.9492"/><path d="M1690.6119,96.9492 L1690.6119,103.9219 L1684.6119,109.9219 L1655.1996,109.9219" fill="none" style="stroke:#000000;stroke-width:0.9;"/><text fill="#000000" font-family="sans-serif" font-size="8.4" lengthAdjust="spacing" textLength="29.4123" x="1656.9996" y="106.6137">Reports</text><rect fill="#F1F1F1" height="21.5766" rx="7.5" ry="7.5" style="stroke:#181818;stroke-width:0.3;" width="153.2719" x="1677.1623" y="120.1219"/><text fill="#000000" font-family="sans-serif" font-size="7.2" lengthAdjust="spacing" textLength="141.2719" x="1683.1623" y="133.8914">Xem b&#225;o c&#225;o b&#225;n h&#224;ng (GET /reports/sales)</text><rect fill="#F1F1F1" height="21.5766" rx="7.5" ry="7.5" style="stroke:#181818;stroke-width:0.3;" width="185.1973" x="1661.1996" y="162.6984"/><text fill="#000000" font-family="sans-serif" font-size="7.2" lengthAdjust="spacing" textLength="173.1973" x="1667.1996" y="176.468">Xem l&#7907;i nhu&#7853;n theo ng&#224;y (GET /reports/profit-per-day)</text><rect fill="#F1F1F1" height="21.5766" rx="7.5" ry="7.5" style="stroke:#181818;stroke-width:0.3;" width="159.266" x="1674.1652" y="234.8643"/><text fill="#000000" font-family="sans-serif" font-size="7.2" lengthAdjust="spacing" textLength="147.266" x="1680.1652" y="248.6338">Xem b&#225;o c&#225;o t&#7891;n kho (GET /reports/inventory)</text><polygon fill="#F1F1F1" points="1731.1462,205.275,1776.4503,205.275,1783.6503,212.475,1776.4503,219.675,1731.1462,219.675,1723.9462,212.475,1731.1462,205.275" style="stroke:#181818;stroke-width:0.3;"/><text fill="#000000" font-family="sans-serif" font-size="6.6" lengthAdjust="spacing" textLength="8.4369" x="1756.1982" y="226.7971">C&#243;</text><text fill="#000000" font-family="sans-serif" font-size="6.6" lengthAdjust="spacing" textLength="45.3041" x="1731.1462" y="215.2078">Vai tr&#242; = Admin</text><polygon fill="#F1F1F1" points="1753.7982,271.6301,1760.9982,278.8301,1753.7982,286.0301,1746.5982,278.8301,1753.7982,271.6301" style="stroke:#181818;stroke-width:0.3;"/><rect fill="#F1F1F1" height="21.5766" rx="7.5" ry="7.5" style="stroke:#181818;stroke-width:0.3;" width="175.684" x="1665.9563" y="307.0301"/><text fill="#000000" font-family="sans-serif" font-size="7.2" lengthAdjust="spacing" textLength="163.684" x="1671.9563" y="320.7996">Xem d&#7919; li&#7879;u bi&#7875;u &#273;&#7891; (GET /reports/sale-chart-infos)</text><rect fill="none" height="115.9277" style="stroke:#000000;stroke-width:0.9;" width="275.6484" x="1858.6313" y="160.8141"/><path d="M1953.3357,160.8141 L1953.3357,167.7867 L1947.3357,173.7867 L1858.6313,173.7867" fill="none" style="stroke:#000000;stroke-width:0.9;"/><text fill="#000000" font-family="sans-serif" font-size="8.4" lengthAdjust="spacing" textLength="88.7045" x="1860.4312" y="170.4785">Customer Points Config</text><rect fill="#F1F1F1" height="21.5766" rx="7.5" ry="7.5" style="stroke:#181818;stroke-width:0.3;" width="252.8484" x="1865.8313" y="213.576"/><text fill="#000000" font-family="sans-serif" font-size="7.2" lengthAdjust="spacing" textLength="240.8484" x="1871.8313" y="227.3455">Xem/C&#7853;p nh&#7853;t &#273;i&#7875;m th&#432;&#7903;ng kh&#225;ch h&#224;ng (GET/PUT /customerPointConfigs)</text><polygon fill="#F1F1F1" points="1969.6034,183.9867,2014.9075,183.9867,2022.1075,191.1867,2014.9075,198.3867,1969.6034,198.3867,1962.4034,191.1867,1969.6034,183.9867" style="stroke:#181818;stroke-width:0.3;"/><text fill="#000000" font-family="sans-serif" font-size="6.6" lengthAdjust="spacing" textLength="8.4369" x="1994.6555" y="205.5088">C&#243;</text><text fill="#000000" font-family="sans-serif" font-size="6.6" lengthAdjust="spacing" textLength="45.3041" x="1969.6034" y="193.9195">Vai tr&#242; = Admin</text><polygon fill="#F1F1F1" points="1992.2555,250.3418,1999.4555,257.5418,1992.2555,264.7418,1985.0555,257.5418,1992.2555,250.3418" style="stroke:#181818;stroke-width:0.3;"/><rect fill="#555555" height="3.6" rx="1.5" ry="1.5" style="stroke:#555555;stroke-width:0.6;" width="2134.8797" x="6.6" y="347.8066"/><rect fill="#F1F1F1" height="21.5766" rx="7.5" ry="7.5" style="stroke:#181818;stroke-width:0.3;" width="86.4398" x="1019.4199" y="363.4066"/><text fill="#000000" font-family="sans-serif" font-size="7.2" lengthAdjust="spacing" textLength="74.4398" x="1025.4199" y="377.1762">K&#7871;t th&#250;c phi&#234;n l&#224;m vi&#7879;c</text><ellipse cx="1062.6398" cy="403.5832" fill="none" rx="6.6" ry="6.6" style="stroke:#222222;stroke-width:0.6;"/><ellipse cx="1062.6398" cy="403.5832" fill="#222222" rx="3.6" ry="3.6" style="stroke:#222222;stroke-width:0.6;"/><line style="stroke:#181818;stroke-width:0.6;" x1="1062.6398" x2="1062.6398" y1="41.7727" y2="53.7727"/><polygon fill="#181818" points="1060.2398,47.7727,1062.6398,53.7727,1065.0398,47.7727,1062.6398,50.1727" style="stroke:#181818;stroke-width:0.6;"/><line style="stroke:#181818;stroke-width:0.6;" x1="156.4148" x2="115.8398" y1="222.8643" y2="222.8643"/><line style="stroke:#181818;stroke-width:0.6;" x1="115.8398" x2="115.8398" y1="222.8643" y2="236.0643"/><polygon fill="#181818" points="113.4398,230.0643,115.8398,236.0643,118.2398,230.0643,115.8398,232.4643" style="stroke:#181818;stroke-width:0.6;"/><line style="stroke:#181818;stroke-width:0.6;" x1="216.1189" x2="256.6939" y1="222.8643" y2="222.8643"/><line style="stroke:#181818;stroke-width:0.6;" x1="256.6939" x2="256.6939" y1="222.8643" y2="236.0643"/><polygon fill="#181818" points="254.2939,230.0643,256.6939,236.0643,259.0939,230.0643,256.6939,232.4643" style="stroke:#181818;stroke-width:0.6;"/><line style="stroke:#181818;stroke-width:0.6;" x1="115.8398" x2="115.8398" y1="257.6408" y2="268.4408"/><line style="stroke:#181818;stroke-width:0.6;" x1="115.8398" x2="179.0669" y1="268.4408" y2="268.4408"/><polygon fill="#181818" points="173.0669,266.0408,179.0669,268.4408,173.0669,270.8408,175.4669,268.4408" style="stroke:#181818;stroke-width:0.6;"/><line style="stroke:#181818;stroke-width:0.6;" x1="256.6939" x2="256.6939" y1="257.6408" y2="268.4408"/><line style="stroke:#181818;stroke-width:0.6;" x1="256.6939" x2="193.4669" y1="268.4408" y2="268.4408"/><polygon fill="#181818" points="199.4669,266.0408,193.4669,268.4408,199.4669,270.8408,197.0669,268.4408" style="stroke:#181818;stroke-width:0.6;"/><line style="stroke:#181818;stroke-width:0.6;" x1="186.2669" x2="186.2669" y1="194.6643" y2="215.6643"/><polygon fill="#181818" points="183.8669,209.6643,186.2669,215.6643,188.6669,209.6643,186.2669,212.0643" style="stroke:#181818;stroke-width:0.6;"/><line style="stroke:#181818;stroke-width:0.6;" x1="410.1439" x2="410.1439" y1="219.675" y2="234.8643"/><polygon fill="#181818" points="407.7439,228.8643,410.1439,234.8643,412.5439,228.8643,410.1439,231.2643" style="stroke:#181818;stroke-width:0.6;"/><line style="stroke:#181818;stroke-width:0.6;" x1="439.996" x2="515.1797" y1="212.475" y2="212.475"/><polygon fill="#181818" points="512.7797,239.6525,515.1797,245.6525,517.5797,239.6525,515.1797,242.0525" style="stroke:#181818;stroke-width:0.6;"/><line style="stroke:#181818;stroke-width:0.6;" x1="515.1797" x2="515.1797" y1="212.475" y2="278.8301"/><line style="stroke:#181818;stroke-width:0.6;" x1="515.1797" x2="417.3439" y1="278.8301" y2="278.8301"/><polygon fill="#181818" points="423.3439,276.4301,417.3439,278.8301,423.3439,281.2301,420.9439,278.8301" style="stroke:#181818;stroke-width:0.6;"/><line style="stroke:#181818;stroke-width:0.6;" x1="410.1439" x2="410.1439" y1="256.4408" y2="271.6301"/><polygon fill="#181818" points="407.7439,265.6301,410.1439,271.6301,412.5439,265.6301,410.1439,268.0301" style="stroke:#181818;stroke-width:0.6;"/><line style="stroke:#181818;stroke-width:0.6;" x1="410.1439" x2="410.1439" y1="184.275" y2="205.275"/><polygon fill="#181818" points="407.7439,199.275,410.1439,205.275,412.5439,199.275,410.1439,201.675" style="stroke:#181818;stroke-width:0.6;"/><line style="stroke:#181818;stroke-width:0.6;" x1="630.617" x2="630.617" y1="198.3867" y2="213.576"/><polygon fill="#181818" points="628.217,207.576,630.617,213.576,633.017,207.576,630.617,209.976" style="stroke:#181818;stroke-width:0.6;"/><line style="stroke:#181818;stroke-width:0.6;" x1="660.469" x2="729.2543" y1="191.1867" y2="191.1867"/><polygon fill="#181818" points="726.8543,218.3643,729.2543,224.3643,731.6543,218.3643,729.2543,220.7643" style="stroke:#181818;stroke-width:0.6;"/><line style="stroke:#181818;stroke-width:0.6;" x1="729.2543" x2="729.2543" y1="191.1867" y2="257.5418"/><line style="stroke:#181818;stroke-width:0.6;" x1="729.2543" x2="637.817" y1="257.5418" y2="257.5418"/><polygon fill="#181818" points="643.817,255.1418,637.817,257.5418,643.817,259.9418,641.417,257.5418" style="stroke:#181818;stroke-width:0.6;"/><line style="stroke:#181818;stroke-width:0.6;" x1="630.617" x2="630.617" y1="235.1525" y2="250.3418"/><polygon fill="#181818" points="628.217,244.3418,630.617,250.3418,633.017,244.3418,630.617,246.7418" style="stroke:#181818;stroke-width:0.6;"/><line style="stroke:#181818;stroke-width:0.6;" x1="823.2832" x2="823.2832" y1="198.3867" y2="213.576"/><polygon fill="#181818" points="820.8832,207.576,823.2832,213.576,825.6832,207.576,823.2832,209.976" style="stroke:#181818;stroke-width:0.6;"/><line style="stroke:#181818;stroke-width:0.6;" x1="853.1353" x2="900.5121" y1="191.1867" y2="191.1867"/><polygon fill="#181818" points="898.1121,218.3643,900.5121,224.3643,902.9121,218.3643,900.5121,220.7643" style="stroke:#181818;stroke-width:0.6;"/><line style="stroke:#181818;stroke-width:0.6;" x1="900.5121" x2="900.5121" y1="191.1867" y2="257.5418"/><line style="stroke:#181818;stroke-width:0.6;" x1="900.5121" x2="830.4832" y1="257.5418" y2="257.5418"/><polygon fill="#181818" points="836.4832,255.1418,830.4832,257.5418,836.4832,259.9418,834.0832,257.5418" style="stroke:#181818;stroke-width:0.6;"/><line style="stroke:#181818;stroke-width:0.6;" x1="823.2832" x2="823.2832" y1="235.1525" y2="250.3418"/><polygon fill="#181818" points="820.8832,244.3418,823.2832,250.3418,825.6832,244.3418,823.2832,246.7418" style="stroke:#181818;stroke-width:0.6;"/><line style="stroke:#181818;stroke-width:0.6;" x1="1001.952" x2="1001.952" y1="198.3867" y2="213.576"/><polygon fill="#181818" points="999.552,207.576,1001.952,213.576,1004.352,207.576,1001.952,209.976" style="stroke:#181818;stroke-width:0.6;"/><line style="stroke:#181818;stroke-width:0.6;" x1="1031.804" x2="1086.5918" y1="191.1867" y2="191.1867"/><polygon fill="#181818" points="1084.1918,218.3643,1086.5918,224.3643,1088.9918,218.3643,1086.5918,220.7643" style="stroke:#181818;stroke-width:0.6;"/><line style="stroke:#181818;stroke-width:0.6;" x1="1086.5918" x2="1086.5918" y1="191.1867" y2="257.5418"/><line style="stroke:#181818;stroke-width:0.6;" x1="1086.5918" x2="1009.152" y1="257.5418" y2="257.5418"/><polygon fill="#181818" points="1015.152,255.1418,1009.152,257.5418,1015.152,259.9418,1012.752,257.5418" style="stroke:#181818;stroke-width:0.6;"/><line style="stroke:#181818;stroke-width:0.6;" x1="1001.952" x2="1001.952" y1="235.1525" y2="250.3418"/><polygon fill="#181818" points="999.552,244.3418,1001.952,250.3418,1004.352,244.3418,1001.952,246.7418" style="stroke:#181818;stroke-width:0.6;"/><line style="stroke:#181818;stroke-width:0.6;" x1="1211.0279" x2="1211.0279" y1="177.0984" y2="192.2877"/><polygon fill="#181818" points="1208.6279,186.2877,1211.0279,192.2877,1213.4279,186.2877,1211.0279,188.6877" style="stroke:#181818;stroke-width:0.6;"/><line style="stroke:#181818;stroke-width:0.6;" x1="1240.88" x2="1285.2545" y1="169.8984" y2="169.8984"/><polygon fill="#181818" points="1282.8545,197.076,1285.2545,203.076,1287.6545,197.076,1285.2545,199.476" style="stroke:#181818;stroke-width:0.6;"/><line style="stroke:#181818;stroke-width:0.6;" x1="1285.2545" x2="1285.2545" y1="169.8984" y2="236.2535"/><line style="stroke:#181818;stroke-width:0.6;" x1="1285.2545" x2="1218.2279" y1="236.2535" y2="236.2535"/><polygon fill="#181818" points="1224.2279,233.8535,1218.2279,236.2535,1224.2279,238.6535,1221.8279,236.2535" style="stroke:#181818;stroke-width:0.6;"/><line style="stroke:#181818;stroke-width:0.6;" x1="1211.0279" x2="1211.0279" y1="213.8643" y2="229.0535"/><polygon fill="#181818" points="1208.6279,223.0535,1211.0279,229.0535,1213.4279,223.0535,1211.0279,225.4535" style="stroke:#181818;stroke-width:0.6;"/><line style="stroke:#181818;stroke-width:0.6;" x1="1211.0279" x2="1211.0279" y1="243.4535" y2="264.4535"/><polygon fill="#181818" points="1208.6279,258.4535,1211.0279,264.4535,1213.4279,258.4535,1211.0279,260.8535" style="stroke:#181818;stroke-width:0.6;"/><line style="stroke:#181818;stroke-width:0.6;" x1="1402.7057" x2="1402.7057" y1="162.9867" y2="183.9867"/><polygon fill="#181818" points="1400.3057,177.9867,1402.7057,183.9867,1405.1057,177.9867,1402.7057,180.3867" style="stroke:#181818;stroke-width:0.6;"/><line style="stroke:#181818;stroke-width:0.6;" x1="1402.7057" x2="1402.7057" y1="240.9633" y2="256.1525"/><polygon fill="#181818" points="1400.3057,250.1525,1402.7057,256.1525,1405.1057,250.1525,1402.7057,252.5525" style="stroke:#181818;stroke-width:0.6;"/><line style="stroke:#181818;stroke-width:0.6;" x1="1432.5577" x2="1492.7473" y1="233.7633" y2="233.7633"/><polygon fill="#181818" points="1490.3473,260.9408,1492.7473,266.9408,1495.1473,260.9408,1492.7473,263.3408" style="stroke:#181818;stroke-width:0.6;"/><line style="stroke:#181818;stroke-width:0.6;" x1="1492.7473" x2="1492.7473" y1="233.7633" y2="300.1184"/><line style="stroke:#181818;stroke-width:0.6;" x1="1492.7473" x2="1409.9057" y1="300.1184" y2="300.1184"/><polygon fill="#181818" points="1415.9057,297.7184,1409.9057,300.1184,1415.9057,302.5184,1413.5057,300.1184" style="stroke:#181818;stroke-width:0.6;"/><line style="stroke:#181818;stroke-width:0.6;" x1="1402.7057" x2="1402.7057" y1="277.7291" y2="292.9184"/><polygon fill="#181818" points="1400.3057,286.9184,1402.7057,292.9184,1405.1057,286.9184,1402.7057,289.3184" style="stroke:#181818;stroke-width:0.6;"/><line style="stroke:#181818;stroke-width:0.6;" x1="1402.7057" x2="1402.7057" y1="205.5633" y2="226.5633"/><polygon fill="#181818" points="1400.3057,220.5633,1402.7057,226.5633,1405.1057,220.5633,1402.7057,222.9633" style="stroke:#181818;stroke-width:0.6;"/><line style="stroke:#181818;stroke-width:0.6;" x1="1578.7734" x2="1578.7734" y1="213.8643" y2="234.8643"/><polygon fill="#181818" points="1576.3734,228.8643,1578.7734,234.8643,1581.1734,228.8643,1578.7734,231.2643" style="stroke:#181818;stroke-width:0.6;"/><line style="stroke:#181818;stroke-width:0.6;" x1="1753.7982" x2="1753.7982" y1="141.6984" y2="162.6984"/><polygon fill="#181818" points="1751.3982,156.6984,1753.7982,162.6984,1756.1982,156.6984,1753.7982,159.0984" style="stroke:#181818;stroke-width:0.6;"/><line style="stroke:#181818;stroke-width:0.6;" x1="1753.7982" x2="1753.7982" y1="219.675" y2="234.8643"/><polygon fill="#181818" points="1751.3982,228.8643,1753.7982,234.8643,1756.1982,228.8643,1753.7982,231.2643" style="stroke:#181818;stroke-width:0.6;"/><line style="stroke:#181818;stroke-width:0.6;" x1="1783.6503" x2="1839.4312" y1="212.475" y2="212.475"/><polygon fill="#181818" points="1837.0313,239.6525,1839.4312,245.6525,1841.8313,239.6525,1839.4312,242.0525" style="stroke:#181818;stroke-width:0.6;"/><line style="stroke:#181818;stroke-width:0.6;" x1="1839.4312" x2="1839.4312" y1="212.475" y2="278.8301"/><line style="stroke:#181818;stroke-width:0.6;" x1="1839.4312" x2="1760.9982" y1="278.8301" y2="278.8301"/><polygon fill="#181818" points="1766.9982,276.4301,1760.9982,278.8301,1766.9982,281.2301,1764.5982,278.8301" style="stroke:#181818;stroke-width:0.6;"/><line style="stroke:#181818;stroke-width:0.6;" x1="1753.7982" x2="1753.7982" y1="256.4408" y2="271.6301"/><polygon fill="#181818" points="1751.3982,265.6301,1753.7982,271.6301,1756.1982,265.6301,1753.7982,268.0301" style="stroke:#181818;stroke-width:0.6;"/><line style="stroke:#181818;stroke-width:0.6;" x1="1753.7982" x2="1753.7982" y1="184.275" y2="205.275"/><polygon fill="#181818" points="1751.3982,199.275,1753.7982,205.275,1756.1982,199.275,1753.7982,201.675" style="stroke:#181818;stroke-width:0.6;"/><line style="stroke:#181818;stroke-width:0.6;" x1="1753.7982" x2="1753.7982" y1="286.0301" y2="307.0301"/><polygon fill="#181818" points="1751.3982,301.0301,1753.7982,307.0301,1756.1982,301.0301,1753.7982,303.4301" style="stroke:#181818;stroke-width:0.6;"/><line style="stroke:#181818;stroke-width:0.6;" x1="1992.2555" x2="1992.2555" y1="198.3867" y2="213.576"/><polygon fill="#181818" points="1989.8555,207.576,1992.2555,213.576,1994.6555,207.576,1992.2555,209.976" style="stroke:#181818;stroke-width:0.6;"/><line style="stroke:#181818;stroke-width:0.6;" x1="2022.1075" x2="2124.6797" y1="191.1867" y2="191.1867"/><polygon fill="#181818" points="2122.2797,218.3643,2124.6797,224.3643,2127.0797,218.3643,2124.6797,220.7643" style="stroke:#181818;stroke-width:0.6;"/><line style="stroke:#181818;stroke-width:0.6;" x1="2124.6797" x2="2124.6797" y1="191.1867" y2="257.5418"/><line style="stroke:#181818;stroke-width:0.6;" x1="2124.6797" x2="1999.4555" y1="257.5418" y2="257.5418"/><polygon fill="#181818" points="2005.4555,255.1418,1999.4555,257.5418,2005.4555,259.9418,2003.0555,257.5418" style="stroke:#181818;stroke-width:0.6;"/><line style="stroke:#181818;stroke-width:0.6;" x1="1992.2555" x2="1992.2555" y1="235.1525" y2="250.3418"/><polygon fill="#181818" points="1989.8555,244.3418,1992.2555,250.3418,1994.6555,244.3418,1992.2555,246.7418" style="stroke:#181818;stroke-width:0.6;"/><line style="stroke:#181818;stroke-width:0.6;" x1="186.2669" x2="186.2669" y1="90.9492" y2="173.0877"/><polygon fill="#181818" points="183.8669,167.0877,186.2669,173.0877,188.6669,167.0877,186.2669,169.4877" style="stroke:#181818;stroke-width:0.6;"/><line style="stroke:#181818;stroke-width:0.6;" x1="410.1439" x2="410.1439" y1="90.9492" y2="162.6984"/><polygon fill="#181818" points="407.7439,156.6984,410.1439,162.6984,412.5439,156.6984,410.1439,159.0984" style="stroke:#181818;stroke-width:0.6;"/><line style="stroke:#181818;stroke-width:0.6;" x1="630.617" x2="630.617" y1="90.9492" y2="183.9867"/><polygon fill="#181818" points="628.217,177.9867,630.617,183.9867,633.017,177.9867,630.617,180.3867" style="stroke:#181818;stroke-width:0.6;"/><line style="stroke:#181818;stroke-width:0.6;" x1="823.2832" x2="823.2832" y1="90.9492" y2="183.9867"/><polygon fill="#181818" points="820.8832,177.9867,823.2832,183.9867,825.6832,177.9867,823.2832,180.3867" style="stroke:#181818;stroke-width:0.6;"/><line style="stroke:#181818;stroke-width:0.6;" x1="1001.952" x2="1001.952" y1="90.9492" y2="183.9867"/><polygon fill="#181818" points="999.552,177.9867,1001.952,183.9867,1004.352,177.9867,1001.952,180.3867" style="stroke:#181818;stroke-width:0.6;"/><line style="stroke:#181818;stroke-width:0.6;" x1="1211.0279" x2="1211.0279" y1="90.9492" y2="162.6984"/><polygon fill="#181818" points="1208.6279,156.6984,1211.0279,162.6984,1213.4279,156.6984,1211.0279,159.0984" style="stroke:#181818;stroke-width:0.6;"/><line style="stroke:#181818;stroke-width:0.6;" x1="1402.7057" x2="1402.7057" y1="90.9492" y2="141.4102"/><polygon fill="#181818" points="1400.3057,135.4102,1402.7057,141.4102,1405.1057,135.4102,1402.7057,137.8102" style="stroke:#181818;stroke-width:0.6;"/><line style="stroke:#181818;stroke-width:0.6;" x1="1578.7734" x2="1578.7734" y1="90.9492" y2="192.2877"/><polygon fill="#181818" points="1576.3734,186.2877,1578.7734,192.2877,1581.1734,186.2877,1578.7734,188.6877" style="stroke:#181818;stroke-width:0.6;"/><line style="stroke:#181818;stroke-width:0.6;" x1="1753.7982" x2="1753.7982" y1="90.9492" y2="120.1219"/><polygon fill="#181818" points="1751.3982,114.1219,1753.7982,120.1219,1756.1982,114.1219,1753.7982,116.5219" style="stroke:#181818;stroke-width:0.6;"/><line style="stroke:#181818;stroke-width:0.6;" x1="1992.2555" x2="1992.2555" y1="90.9492" y2="183.9867"/><polygon fill="#181818" points="1989.8555,177.9867,1992.2555,183.9867,1994.6555,177.9867,1992.2555,180.3867" style="stroke:#181818;stroke-width:0.6;"/><line style="stroke:#181818;stroke-width:0.6;" x1="186.2669" x2="186.2669" y1="275.6408" y2="347.8066"/><polygon fill="#181818" points="183.8669,341.8066,186.2669,347.8066,188.6669,341.8066,186.2669,344.2066" style="stroke:#181818;stroke-width:0.6;"/><line style="stroke:#181818;stroke-width:0.6;" x1="410.1439" x2="410.1439" y1="286.0301" y2="347.8066"/><polygon fill="#181818" points="407.7439,341.8066,410.1439,347.8066,412.5439,341.8066,410.1439,344.2066" style="stroke:#181818;stroke-width:0.6;"/><line style="stroke:#181818;stroke-width:0.6;" x1="630.617" x2="630.617" y1="264.7418" y2="347.8066"/><polygon fill="#181818" points="628.217,341.8066,630.617,347.8066,633.017,341.8066,630.617,344.2066" style="stroke:#181818;stroke-width:0.6;"/><line style="stroke:#181818;stroke-width:0.6;" x1="823.2832" x2="823.2832" y1="264.7418" y2="347.8066"/><polygon fill="#181818" points="820.8832,341.8066,823.2832,347.8066,825.6832,341.8066,823.2832,344.2066" style="stroke:#181818;stroke-width:0.6;"/><line style="stroke:#181818;stroke-width:0.6;" x1="1001.952" x2="1001.952" y1="264.7418" y2="347.8066"/><polygon fill="#181818" points="999.552,341.8066,1001.952,347.8066,1004.352,341.8066,1001.952,344.2066" style="stroke:#181818;stroke-width:0.6;"/><line style="stroke:#181818;stroke-width:0.6;" x1="1211.0279" x2="1211.0279" y1="286.0301" y2="347.8066"/><polygon fill="#181818" points="1208.6279,341.8066,1211.0279,347.8066,1213.4279,341.8066,1211.0279,344.2066" style="stroke:#181818;stroke-width:0.6;"/><line style="stroke:#181818;stroke-width:0.6;" x1="1402.7057" x2="1402.7057" y1="307.3184" y2="347.8066"/><polygon fill="#181818" points="1400.3057,341.8066,1402.7057,347.8066,1405.1057,341.8066,1402.7057,344.2066" style="stroke:#181818;stroke-width:0.6;"/><line style="stroke:#181818;stroke-width:0.6;" x1="1578.7734" x2="1578.7734" y1="256.4408" y2="347.8066"/><polygon fill="#181818" points="1576.3734,341.8066,1578.7734,347.8066,1581.1734,341.8066,1578.7734,344.2066" style="stroke:#181818;stroke-width:0.6;"/><line style="stroke:#181818;stroke-width:0.6;" x1="1753.7982" x2="1753.7982" y1="328.6066" y2="347.8066"/><polygon fill="#181818" points="1751.3982,341.8066,1753.7982,347.8066,1756.1982,341.8066,1753.7982,344.2066" style="stroke:#181818;stroke-width:0.6;"/><line style="stroke:#181818;stroke-width:0.6;" x1="1992.2555" x2="1992.2555" y1="264.7418" y2="347.8066"/><polygon fill="#181818" points="1989.8555,341.8066,1992.2555,347.8066,1994.6555,341.8066,1992.2555,344.2066" style="stroke:#181818;stroke-width:0.6;"/><line style="stroke:#181818;stroke-width:0.6;" x1="1062.6398" x2="1062.6398" y1="75.3492" y2="87.3492"/><polygon fill="#181818" points="1060.2398,81.3492,1062.6398,87.3492,1065.0398,81.3492,1062.6398,83.7492" style="stroke:#181818;stroke-width:0.6;"/><line style="stroke:#181818;stroke-width:0.6;" x1="1062.6398" x2="1062.6398" y1="351.4066" y2="363.4066"/><polygon fill="#181818" points="1060.2398,357.4066,1062.6398,363.4066,1065.0398,357.4066,1062.6398,359.8066" style="stroke:#181818;stroke-width:0.6;"/><line style="stroke:#181818;stroke-width:0.6;" x1="1062.6398" x2="1062.6398" y1="384.9832" y2="396.9832"/><polygon fill="#181818" points="1060.2398,390.9832,1062.6398,396.9832,1065.0398,390.9832,1062.6398,393.3832" style="stroke:#181818;stroke-width:0.6;"/><!--SRC=[hLQ_RzD05DxzLpmnfKFalHL3bKOWqK9eKzJrwbpiK-mxw-uSY11J1uHOMY56H4hLWKeH5MKX5c9mrF_3_mdlBawJk6b9fMIm8-Nz-BxlldilckcGmgQdMPVf7cmnuaiIGHKQ0P4HyNgmGpZnQKIvXhsUqZHo7AM9rCxwS__wCa-_C6XblxdllapouHa7BVFq8unEHaVS1nxamq4CGPw-1utF4-vlE4vRo8uJOmsccU3mQ8UscCSudUdr2DuwW9_r0nf1Y_00L7Rg1LWamIeUL9xKc-16HQ9Qsx3Hh0sLLuGXXkmdF8RDLiJu6kPG3fLQThLcWspPPf1THEvUdWw8Uv1TaMdXnekzfjlORxfRzUrwitwx2GqLXSg-edAcNWt9VO0t25O7sIzahXalmdcBjPrtbZGGdp0-ItrRUCH-soLUvox-NQCeSXf0U7sPM8L_50g4HRv9Nu4AqqwtTLZKwdvoD-TQ8vhwGlOM45mURE6lCFipDaIKf-VUzDngk_jRqyCgEZAw7DAz98v3HkMg0F8WwuENe0-yV7WUJz2feisIeBH0JpGIwGL4qLL1YmEM3_ycDrSpwoFA0bzSz5eENpsAGz6ZT8MYVUFGPTa5dm2YHOjvG3PnT9oddncwO3ZGq44otvEnQMUoN6J3VTeWIhqMieL5xk9IIvGMqK83b4TG9x2lGZXx2xqYUm9pVB5AaMDivT3bbPgvfgN2CvUqNFu_3YCXLOieZuxj-ExWgHncftoUWZ9P4wPF1VvaHjBmR7w65d6kfEs4toVzBes5r6fERcmgm3EFsVPMQpaEdqTXSi8yFMDe8ZJKW1i51N0_w_TAUR4KRQQhCPNL5kaz-1JcqUay_SJnE4If2UDTb1CdtctVMZUP0Huot8e97EBhAC65YQKMKAoYXQMkCjuMQXd_DWJZMa5Dy3Rp7tuT4PrRiuF1pWUDk0m-izRCilzgJ57slzaIK-TP0EFsPHFY6-pkTzQVuGpIPbSEFJEHp9KFipwkEYEAju5_CKJi_0C0]--></g></svg>